<mxfile host="www.draw.io" modified="2019-11-11T19:50:04.465Z" agent="Mozilla/5.0 (Windows NT 10.0; Win64; x64) AppleWebKit/537.36 (KHTML, like Gecko) Chrome/78.0.3904.87 Safari/537.36" etag="Tm7IA6uYwGea6ElQ0N9X" version="12.2.3" type="github" pages="1">
  <diagram id="opmxB-icwHf5EDZaS1Gb" name="Page-1">
    <mxGraphModel dx="2347" dy="2265" grid="1" gridSize="10" guides="1" tooltips="1" connect="1" arrows="1" fold="1" page="1" pageScale="1" pageWidth="850" pageHeight="1100" math="0" shadow="0">
      <root>
        <mxCell id="0"/>
        <mxCell id="1" parent="0"/>
        <mxCell id="5k5NbatZCbRxe1BZQEuP-65" value="" style="rounded=0;whiteSpace=wrap;html=1;strokeWidth=3;fillColor=none;dashed=1;" parent="1" vertex="1">
          <mxGeometry x="1040" y="-10" width="180" height="880" as="geometry"/>
        </mxCell>
        <mxCell id="5k5NbatZCbRxe1BZQEuP-63" value="" style="rounded=0;whiteSpace=wrap;html=1;strokeWidth=3;fillColor=none;dashed=1;" parent="1" vertex="1">
          <mxGeometry x="600" y="-30" width="180" height="920" as="geometry"/>
        </mxCell>
        <mxCell id="5k5NbatZCbRxe1BZQEuP-61" value="" style="rounded=0;whiteSpace=wrap;html=1;strokeWidth=3;fillColor=none;dashed=1;" parent="1" vertex="1">
          <mxGeometry x="110" y="-40" width="180" height="1050" as="geometry"/>
        </mxCell>
        <mxCell id="5k5NbatZCbRxe1BZQEuP-31" style="edgeStyle=orthogonalEdgeStyle;rounded=0;orthogonalLoop=1;jettySize=auto;html=1;strokeWidth=3;fillColor=#f8cecc;strokeColor=#b85450;" parent="1" source="5k5NbatZCbRxe1BZQEuP-1" target="5k5NbatZCbRxe1BZQEuP-10" edge="1">
          <mxGeometry relative="1" as="geometry">
            <Array as="points">
              <mxPoint x="550" y="240"/>
              <mxPoint x="550" y="205"/>
            </Array>
          </mxGeometry>
        </mxCell>
        <mxCell id="5k5NbatZCbRxe1BZQEuP-39" style="edgeStyle=orthogonalEdgeStyle;rounded=0;orthogonalLoop=1;jettySize=auto;html=1;entryX=0;entryY=0.5;entryDx=0;entryDy=0;strokeWidth=3;fillColor=#f8cecc;strokeColor=#b85450;" parent="1" source="5k5NbatZCbRxe1BZQEuP-1" target="5k5NbatZCbRxe1BZQEuP-17" edge="1">
          <mxGeometry relative="1" as="geometry">
            <Array as="points">
              <mxPoint x="550" y="240"/>
              <mxPoint x="550" y="340"/>
            </Array>
          </mxGeometry>
        </mxCell>
        <mxCell id="5k5NbatZCbRxe1BZQEuP-40" style="edgeStyle=orthogonalEdgeStyle;rounded=0;orthogonalLoop=1;jettySize=auto;html=1;entryX=0;entryY=0.5;entryDx=0;entryDy=0;strokeWidth=3;fillColor=#f8cecc;strokeColor=#b85450;" parent="1" source="5k5NbatZCbRxe1BZQEuP-1" target="5k5NbatZCbRxe1BZQEuP-21" edge="1">
          <mxGeometry relative="1" as="geometry">
            <Array as="points">
              <mxPoint x="550" y="240"/>
              <mxPoint x="550" y="475"/>
            </Array>
          </mxGeometry>
        </mxCell>
        <mxCell id="5k5NbatZCbRxe1BZQEuP-42" style="edgeStyle=orthogonalEdgeStyle;rounded=0;orthogonalLoop=1;jettySize=auto;html=1;entryX=0;entryY=0.5;entryDx=0;entryDy=0;fillColor=#f8cecc;strokeColor=#b85450;strokeWidth=3;" parent="1" source="5k5NbatZCbRxe1BZQEuP-1" target="5k5NbatZCbRxe1BZQEuP-22" edge="1">
          <mxGeometry relative="1" as="geometry">
            <Array as="points">
              <mxPoint x="550" y="240"/>
              <mxPoint x="550" y="618"/>
            </Array>
          </mxGeometry>
        </mxCell>
        <mxCell id="5k5NbatZCbRxe1BZQEuP-43" style="edgeStyle=orthogonalEdgeStyle;rounded=0;orthogonalLoop=1;jettySize=auto;html=1;entryX=0;entryY=0.5;entryDx=0;entryDy=0;strokeWidth=3;fillColor=#f8cecc;strokeColor=#b85450;" parent="1" source="5k5NbatZCbRxe1BZQEuP-1" target="5k5NbatZCbRxe1BZQEuP-23" edge="1">
          <mxGeometry relative="1" as="geometry">
            <Array as="points">
              <mxPoint x="550" y="240"/>
              <mxPoint x="550" y="760"/>
            </Array>
          </mxGeometry>
        </mxCell>
        <mxCell id="5k5NbatZCbRxe1BZQEuP-58" style="edgeStyle=orthogonalEdgeStyle;rounded=0;orthogonalLoop=1;jettySize=auto;html=1;entryX=0;entryY=0.5;entryDx=0;entryDy=0;strokeWidth=3;fillColor=#f8cecc;strokeColor=#b85450;" parent="1" source="5k5NbatZCbRxe1BZQEuP-1" target="5k5NbatZCbRxe1BZQEuP-57" edge="1">
          <mxGeometry relative="1" as="geometry">
            <Array as="points">
              <mxPoint x="550" y="240"/>
              <mxPoint x="550" y="71"/>
            </Array>
          </mxGeometry>
        </mxCell>
        <mxCell id="5k5NbatZCbRxe1BZQEuP-1" value="LED Information" style="shape=cylinder;whiteSpace=wrap;html=1;boundedLbl=1;backgroundOutline=1;fillColor=#f8cecc;strokeColor=#b85450;fontSize=15;" parent="1" vertex="1">
          <mxGeometry x="130" y="164.5" width="140" height="130" as="geometry"/>
        </mxCell>
        <mxCell id="5k5NbatZCbRxe1BZQEuP-44" style="edgeStyle=orthogonalEdgeStyle;rounded=0;orthogonalLoop=1;jettySize=auto;html=1;entryX=0.05;entryY=0.725;entryDx=0;entryDy=0;entryPerimeter=0;fillColor=#dae8fc;strokeColor=#6c8ebf;strokeWidth=3;" parent="1" source="5k5NbatZCbRxe1BZQEuP-2" target="5k5NbatZCbRxe1BZQEuP-10" edge="1">
          <mxGeometry relative="1" as="geometry">
            <Array as="points">
              <mxPoint x="480" y="395"/>
              <mxPoint x="480" y="222"/>
            </Array>
          </mxGeometry>
        </mxCell>
        <mxCell id="5k5NbatZCbRxe1BZQEuP-45" style="edgeStyle=orthogonalEdgeStyle;rounded=0;orthogonalLoop=1;jettySize=auto;html=1;entryX=0.033;entryY=0.688;entryDx=0;entryDy=0;entryPerimeter=0;fillColor=#dae8fc;strokeColor=#6c8ebf;strokeWidth=3;" parent="1" source="5k5NbatZCbRxe1BZQEuP-2" target="5k5NbatZCbRxe1BZQEuP-17" edge="1">
          <mxGeometry relative="1" as="geometry">
            <mxPoint x="430" y="395" as="targetPoint"/>
            <Array as="points">
              <mxPoint x="480" y="395"/>
              <mxPoint x="480" y="355"/>
            </Array>
          </mxGeometry>
        </mxCell>
        <mxCell id="5k5NbatZCbRxe1BZQEuP-46" style="edgeStyle=orthogonalEdgeStyle;rounded=0;orthogonalLoop=1;jettySize=auto;html=1;entryX=0.025;entryY=0.713;entryDx=0;entryDy=0;entryPerimeter=0;fillColor=#dae8fc;strokeColor=#6c8ebf;strokeWidth=3;" parent="1" source="5k5NbatZCbRxe1BZQEuP-2" target="5k5NbatZCbRxe1BZQEuP-21" edge="1">
          <mxGeometry relative="1" as="geometry">
            <Array as="points">
              <mxPoint x="480" y="395"/>
              <mxPoint x="480" y="492"/>
            </Array>
          </mxGeometry>
        </mxCell>
        <mxCell id="5k5NbatZCbRxe1BZQEuP-47" style="edgeStyle=orthogonalEdgeStyle;rounded=0;orthogonalLoop=1;jettySize=auto;html=1;entryX=0.058;entryY=0.813;entryDx=0;entryDy=0;entryPerimeter=0;fillColor=#dae8fc;strokeColor=#6c8ebf;strokeWidth=3;" parent="1" source="5k5NbatZCbRxe1BZQEuP-2" target="5k5NbatZCbRxe1BZQEuP-23" edge="1">
          <mxGeometry relative="1" as="geometry">
            <Array as="points">
              <mxPoint x="480" y="395"/>
              <mxPoint x="480" y="784"/>
            </Array>
          </mxGeometry>
        </mxCell>
        <mxCell id="5k5NbatZCbRxe1BZQEuP-60" style="edgeStyle=orthogonalEdgeStyle;rounded=0;orthogonalLoop=1;jettySize=auto;html=1;entryX=-0.011;entryY=0.713;entryDx=0;entryDy=0;entryPerimeter=0;strokeWidth=3;fillColor=#dae8fc;strokeColor=#6c8ebf;" parent="1" source="5k5NbatZCbRxe1BZQEuP-2" target="5k5NbatZCbRxe1BZQEuP-57" edge="1">
          <mxGeometry relative="1" as="geometry">
            <Array as="points">
              <mxPoint x="480" y="395"/>
              <mxPoint x="480" y="87"/>
            </Array>
          </mxGeometry>
        </mxCell>
        <mxCell id="5k5NbatZCbRxe1BZQEuP-2" value="OEM SPEC Requirement" style="shape=cylinder;whiteSpace=wrap;html=1;boundedLbl=1;backgroundOutline=1;fillColor=#dae8fc;strokeColor=#6c8ebf;fontSize=15;" parent="1" vertex="1">
          <mxGeometry x="130" y="330" width="140" height="130" as="geometry"/>
        </mxCell>
        <mxCell id="5k5NbatZCbRxe1BZQEuP-48" style="edgeStyle=orthogonalEdgeStyle;rounded=0;orthogonalLoop=1;jettySize=auto;html=1;entryX=0.042;entryY=0.313;entryDx=0;entryDy=0;entryPerimeter=0;strokeWidth=3;fillColor=#d5e8d4;strokeColor=#82b366;" parent="1" source="5k5NbatZCbRxe1BZQEuP-3" target="5k5NbatZCbRxe1BZQEuP-17" edge="1">
          <mxGeometry relative="1" as="geometry">
            <Array as="points">
              <mxPoint x="410" y="570"/>
              <mxPoint x="410" y="325"/>
            </Array>
          </mxGeometry>
        </mxCell>
        <mxCell id="5k5NbatZCbRxe1BZQEuP-49" style="edgeStyle=orthogonalEdgeStyle;rounded=0;orthogonalLoop=1;jettySize=auto;html=1;entryX=0.008;entryY=0.325;entryDx=0;entryDy=0;entryPerimeter=0;strokeWidth=3;fillColor=#d5e8d4;strokeColor=#82b366;" parent="1" source="5k5NbatZCbRxe1BZQEuP-3" target="5k5NbatZCbRxe1BZQEuP-21" edge="1">
          <mxGeometry relative="1" as="geometry">
            <Array as="points">
              <mxPoint x="410" y="570"/>
              <mxPoint x="410" y="461"/>
            </Array>
          </mxGeometry>
        </mxCell>
        <mxCell id="5k5NbatZCbRxe1BZQEuP-50" style="edgeStyle=orthogonalEdgeStyle;rounded=0;orthogonalLoop=1;jettySize=auto;html=1;entryX=0.033;entryY=0.313;entryDx=0;entryDy=0;entryPerimeter=0;strokeWidth=3;fillColor=#d5e8d4;strokeColor=#82b366;" parent="1" source="5k5NbatZCbRxe1BZQEuP-3" target="5k5NbatZCbRxe1BZQEuP-23" edge="1">
          <mxGeometry relative="1" as="geometry">
            <Array as="points">
              <mxPoint x="410" y="570"/>
              <mxPoint x="410" y="745"/>
            </Array>
          </mxGeometry>
        </mxCell>
        <mxCell id="5k5NbatZCbRxe1BZQEuP-3" value="PTOF Results" style="shape=cylinder;whiteSpace=wrap;html=1;boundedLbl=1;backgroundOutline=1;fillColor=#d5e8d4;strokeColor=#82b366;fontSize=15;" parent="1" vertex="1">
          <mxGeometry x="130" y="490" width="140" height="130" as="geometry"/>
        </mxCell>
        <mxCell id="5k5NbatZCbRxe1BZQEuP-53" style="edgeStyle=orthogonalEdgeStyle;rounded=0;orthogonalLoop=1;jettySize=auto;html=1;entryX=0;entryY=0.3;entryDx=0;entryDy=0;entryPerimeter=0;strokeWidth=3;fillColor=#fff2cc;strokeColor=#d6b656;" parent="1" source="5k5NbatZCbRxe1BZQEuP-4" target="5k5NbatZCbRxe1BZQEuP-10" edge="1">
          <mxGeometry relative="1" as="geometry">
            <Array as="points">
              <mxPoint x="350" y="745"/>
              <mxPoint x="350" y="190"/>
            </Array>
          </mxGeometry>
        </mxCell>
        <mxCell id="5k5NbatZCbRxe1BZQEuP-54" style="edgeStyle=orthogonalEdgeStyle;rounded=0;orthogonalLoop=1;jettySize=auto;html=1;entryX=0;entryY=1;entryDx=0;entryDy=0;strokeWidth=3;fillColor=#fff2cc;strokeColor=#d6b656;" parent="1" source="5k5NbatZCbRxe1BZQEuP-4" target="5k5NbatZCbRxe1BZQEuP-21" edge="1">
          <mxGeometry relative="1" as="geometry">
            <Array as="points">
              <mxPoint x="350" y="745"/>
              <mxPoint x="350" y="502"/>
            </Array>
          </mxGeometry>
        </mxCell>
        <mxCell id="5k5NbatZCbRxe1BZQEuP-4" value="Matrial Information" style="shape=cylinder;whiteSpace=wrap;html=1;boundedLbl=1;backgroundOutline=1;fillColor=#fff2cc;strokeColor=#d6b656;fontSize=15;" parent="1" vertex="1">
          <mxGeometry x="130" y="654.5" width="140" height="130" as="geometry"/>
        </mxCell>
        <mxCell id="5k5NbatZCbRxe1BZQEuP-5" value="BIN TABLE&amp;nbsp; &amp;nbsp;(Resistor value calculation)" style="rounded=1;whiteSpace=wrap;html=1;strokeWidth=3;fontSize=15;" parent="1" vertex="1">
          <mxGeometry x="1070" y="586.5" width="120" height="60" as="geometry"/>
        </mxCell>
        <mxCell id="5k5NbatZCbRxe1BZQEuP-6" value="BlueTag/TALC&amp;nbsp; Report" style="rounded=1;whiteSpace=wrap;html=1;strokeWidth=3;fontSize=15;" parent="1" vertex="1">
          <mxGeometry x="1070" y="730" width="120" height="60" as="geometry"/>
        </mxCell>
        <mxCell id="5k5NbatZCbRxe1BZQEuP-7" value="LED/Illumination Study (Color/Intensity)" style="rounded=1;whiteSpace=wrap;html=1;strokeWidth=3;fontSize=15;" parent="1" vertex="1">
          <mxGeometry x="1070" y="445" width="120" height="60" as="geometry"/>
        </mxCell>
        <mxCell id="5k5NbatZCbRxe1BZQEuP-8" value="PTOF Internal Form" style="rounded=1;whiteSpace=wrap;html=1;strokeWidth=3;fontSize=15;" parent="1" vertex="1">
          <mxGeometry x="1070" y="310" width="120" height="60" as="geometry"/>
        </mxCell>
        <mxCell id="5k5NbatZCbRxe1BZQEuP-9" value="LED Selection" style="rounded=1;whiteSpace=wrap;html=1;strokeWidth=3;fontSize=15;" parent="1" vertex="1">
          <mxGeometry x="1070" y="174" width="120" height="60" as="geometry"/>
        </mxCell>
        <mxCell id="5k5NbatZCbRxe1BZQEuP-16" style="edgeStyle=orthogonalEdgeStyle;rounded=0;orthogonalLoop=1;jettySize=auto;html=1;entryX=0;entryY=0.5;entryDx=0;entryDy=0;strokeWidth=3;" parent="1" source="5k5NbatZCbRxe1BZQEuP-10" target="5k5NbatZCbRxe1BZQEuP-9" edge="1">
          <mxGeometry relative="1" as="geometry"/>
        </mxCell>
        <mxCell id="5k5NbatZCbRxe1BZQEuP-10" value="UI_LED Selection" style="ellipse;whiteSpace=wrap;html=1;strokeWidth=3;fontSize=15;" parent="1" vertex="1">
          <mxGeometry x="630" y="164.5" width="120" height="80" as="geometry"/>
        </mxCell>
        <mxCell id="5k5NbatZCbRxe1BZQEuP-27" style="edgeStyle=orthogonalEdgeStyle;rounded=0;orthogonalLoop=1;jettySize=auto;html=1;entryX=0;entryY=0.5;entryDx=0;entryDy=0;strokeWidth=3;" parent="1" source="5k5NbatZCbRxe1BZQEuP-17" target="5k5NbatZCbRxe1BZQEuP-8" edge="1">
          <mxGeometry relative="1" as="geometry"/>
        </mxCell>
        <mxCell id="5k5NbatZCbRxe1BZQEuP-17" value="&lt;span style=&quot;white-space: normal; font-size: 15px;&quot;&gt;UI_PTOF Form&lt;/span&gt;" style="ellipse;whiteSpace=wrap;html=1;strokeWidth=3;fontSize=15;" parent="1" vertex="1">
          <mxGeometry x="630" y="299.5" width="120" height="80" as="geometry"/>
        </mxCell>
        <mxCell id="5k5NbatZCbRxe1BZQEuP-28" style="edgeStyle=orthogonalEdgeStyle;rounded=0;orthogonalLoop=1;jettySize=auto;html=1;entryX=0;entryY=0.5;entryDx=0;entryDy=0;strokeWidth=3;" parent="1" source="5k5NbatZCbRxe1BZQEuP-21" target="5k5NbatZCbRxe1BZQEuP-7" edge="1">
          <mxGeometry relative="1" as="geometry"/>
        </mxCell>
        <mxCell id="5k5NbatZCbRxe1BZQEuP-21" value="&lt;span style=&quot;white-space: normal; font-size: 15px;&quot;&gt;UI_Light Study&lt;/span&gt;" style="ellipse;whiteSpace=wrap;html=1;strokeWidth=3;fontSize=15;" parent="1" vertex="1">
          <mxGeometry x="630" y="434.5" width="120" height="80" as="geometry"/>
        </mxCell>
        <mxCell id="5k5NbatZCbRxe1BZQEuP-29" style="edgeStyle=orthogonalEdgeStyle;rounded=0;orthogonalLoop=1;jettySize=auto;html=1;entryX=0;entryY=0.5;entryDx=0;entryDy=0;strokeWidth=3;" parent="1" source="5k5NbatZCbRxe1BZQEuP-22" target="5k5NbatZCbRxe1BZQEuP-5" edge="1">
          <mxGeometry relative="1" as="geometry"/>
        </mxCell>
        <mxCell id="5k5NbatZCbRxe1BZQEuP-22" value="&lt;span style=&quot;white-space: normal; font-size: 15px;&quot;&gt;UI_Bin Table&lt;/span&gt;" style="ellipse;whiteSpace=wrap;html=1;strokeWidth=3;fontSize=15;" parent="1" vertex="1">
          <mxGeometry x="630" y="577" width="120" height="80" as="geometry"/>
        </mxCell>
        <mxCell id="5k5NbatZCbRxe1BZQEuP-30" style="edgeStyle=orthogonalEdgeStyle;rounded=0;orthogonalLoop=1;jettySize=auto;html=1;strokeWidth=3;" parent="1" source="5k5NbatZCbRxe1BZQEuP-23" target="5k5NbatZCbRxe1BZQEuP-6" edge="1">
          <mxGeometry relative="1" as="geometry"/>
        </mxCell>
        <mxCell id="5k5NbatZCbRxe1BZQEuP-23" value="&lt;span style=&quot;white-space: normal; font-size: 15px;&quot;&gt;UI_TALC Report&lt;/span&gt;" style="ellipse;whiteSpace=wrap;html=1;strokeWidth=3;fontSize=15;" parent="1" vertex="1">
          <mxGeometry x="630" y="719.5" width="120" height="80" as="geometry"/>
        </mxCell>
        <mxCell id="5k5NbatZCbRxe1BZQEuP-55" value="Project Information" style="shape=cylinder;whiteSpace=wrap;html=1;boundedLbl=1;backgroundOutline=1;fillColor=#e1d5e7;strokeColor=#9673a6;fontSize=15;" parent="1" vertex="1">
          <mxGeometry x="130" y="5" width="140" height="130" as="geometry"/>
        </mxCell>
        <mxCell id="5k5NbatZCbRxe1BZQEuP-56" value="WCA" style="rounded=1;whiteSpace=wrap;html=1;strokeWidth=3;fontSize=15;" parent="1" vertex="1">
          <mxGeometry x="1070" y="40" width="120" height="60" as="geometry"/>
        </mxCell>
        <mxCell id="5k5NbatZCbRxe1BZQEuP-59" style="edgeStyle=orthogonalEdgeStyle;rounded=0;orthogonalLoop=1;jettySize=auto;html=1;strokeWidth=3;" parent="1" source="5k5NbatZCbRxe1BZQEuP-57" target="5k5NbatZCbRxe1BZQEuP-56" edge="1">
          <mxGeometry relative="1" as="geometry"/>
        </mxCell>
        <mxCell id="5k5NbatZCbRxe1BZQEuP-57" value="UI_WCA" style="ellipse;whiteSpace=wrap;html=1;strokeWidth=3;fontSize=15;" parent="1" vertex="1">
          <mxGeometry x="630" y="29.5" width="120" height="80" as="geometry"/>
        </mxCell>
        <mxCell id="5k5NbatZCbRxe1BZQEuP-62" value="&lt;font style=&quot;font-size: 24px;&quot;&gt;Database&lt;/font&gt;" style="text;html=1;strokeColor=none;fillColor=none;align=center;verticalAlign=middle;whiteSpace=wrap;rounded=0;dashed=1;fontStyle=1;fontSize=24;" parent="1" vertex="1">
          <mxGeometry x="130" y="935" width="140" height="70" as="geometry"/>
        </mxCell>
        <mxCell id="5k5NbatZCbRxe1BZQEuP-64" value="&lt;font style=&quot;font-size: 24px&quot;&gt;User Interface&lt;/font&gt;" style="text;html=1;strokeColor=none;fillColor=none;align=center;verticalAlign=middle;whiteSpace=wrap;rounded=0;dashed=1;fontStyle=1;fontSize=24;" parent="1" vertex="1">
          <mxGeometry x="620" y="809.5" width="140" height="60" as="geometry"/>
        </mxCell>
        <mxCell id="5k5NbatZCbRxe1BZQEuP-66" value="&lt;font style=&quot;font-size: 24px&quot;&gt;Output&lt;/font&gt;" style="text;html=1;strokeColor=none;fillColor=none;align=center;verticalAlign=middle;whiteSpace=wrap;rounded=0;dashed=1;fontStyle=1;fontSize=24;" parent="1" vertex="1">
          <mxGeometry x="1060" y="800" width="140" height="60" as="geometry"/>
        </mxCell>
        <mxCell id="5k5NbatZCbRxe1BZQEuP-67" value="&lt;font style=&quot;font-size: 29px&quot;&gt;Nidec Illumination System Design Toolkit&lt;/font&gt;" style="text;html=1;strokeColor=none;fillColor=none;align=center;verticalAlign=middle;whiteSpace=wrap;rounded=0;dashed=1;fontSize=24;" parent="1" vertex="1">
          <mxGeometry x="310" y="930" width="820" height="50" as="geometry"/>
        </mxCell>
        <mxCell id="KGe98FNOcoYEw881Q-vD-3" value="DL LED" style="shape=cylinder;whiteSpace=wrap;html=1;boundedLbl=1;backgroundOutline=1;fontSize=15;" vertex="1" parent="1">
          <mxGeometry x="130" y="804.5" width="140" height="130" as="geometry"/>
        </mxCell>
      </root>
    </mxGraphModel>
  </diagram>
</mxfile>
